# xmcd
#
# Track frame offsets:
# 150
# 13325
# 30577
# 43455
# 58305
# 77050
# 96327
# 110725
# 123530
# 135910
# 153550
# 169865
# 190557
# 199927
#
# Disc length: 2881 seconds
#
#
# Revision: 0
# Processed by: cddbd v1.5.2PL0 Copyright (c) Steve Scherf et al.
# Submitted via: FreeRIP 2.53 
#
DISCID=c80b3f0e
DTITLE=Fabrice Eulry, Marc Laferrière and Jacky Milliet - Connection
DYEAR=1996
DGENRE=Boogie Woogie
TTITLE0=Moulin A Cafe
TTITLE1=Swanee River
TTITLE2=Champagne's Bubbles
TTITLE3=Perdido Street Blues
TTITLE4=My Favorite
TTITLE5=High Society
TTITLE6=Chez Serge
TTITLE7=Roses De Picardie
TTITLE8=C'est Le Coup De Feu
TTITLE9=If I Had You
TTITLE10=Sweet Georgia Brown
TTITLE11=Jazz Me Blues
TTITLE12=Blues Au Saxaphone
TTITLE13=Marchand De Poissons
EXTD=Disques Office DO 65170
EXTT0=
EXTT1=
EXTT2=
EXTT3=
EXTT4=
EXTT5=
EXTT6=
EXTT7=
EXTT8=
EXTT9=
EXTT10=
EXTT11=
EXTT12=
EXTT13=
PLAYORDER=
